HIERARCHY
ROOT Hips
{
    OFFSET   0.000000   0.000000   0.000000
    CHANNELS 6 Xposition Yposition Zposition Zrotation Xrotation Yrotation
    JOINT Chest
    {
        OFFSET   0.000000   8.007230   0.000000
        CHANNELS 3 Zrotation Xrotation Yrotation
        JOINT Chest2
        {
            OFFSET   0.000000  22.077100   0.000000
            CHANNELS 3 Zrotation Xrotation Yrotation
            JOINT Neck
            {
                OFFSET   0.000000  23.255100   0.000000
                CHANNELS 3 Zrotation Xrotation Yrotation
                JOINT Head
                {
                    OFFSET   0.000000  14.370100   1.956600
                    CHANNELS 3 Zrotation Xrotation Yrotation
                    End Site
                    {
                        OFFSET   0.000000  19.566000   0.000000
                    }
                }
            }
            JOINT LeftCollar
            {
                OFFSET   3.911900  19.017000  -0.467063
                CHANNELS 3 Zrotation Xrotation Yrotation
                JOINT LeftShoulder
                {
                    OFFSET  10.383700   0.000000   0.000000
                    CHANNELS 3 Zrotation Xrotation Yrotation
                    JOINT LeftElbow
                    {
                        OFFSET  26.662100   0.001193   0.000980
                        CHANNELS 3 Zrotation Xrotation Yrotation
                        JOINT LeftWrist
                        {
                            OFFSET  28.869000  -0.000059  -0.000082
                            CHANNELS 3 Zrotation Xrotation Yrotation
                            JOINT LeftFinger0
                            {
                                OFFSET   2.044650  -2.323450   3.252850
                                CHANNELS 3 Zrotation Xrotation Yrotation
                                JOINT LeftFinger01
                                {
                                    OFFSET   3.088130   0.000000   0.000000
                                    CHANNELS 3 Zrotation Xrotation Yrotation
                                    JOINT LeftFinger02
                                    {
                                        OFFSET   2.639460   0.000000   0.000000
                                        CHANNELS 3 Zrotation Xrotation Yrotation
                                        End Site
                                        {
                                            OFFSET   2.582190   0.000000   0.000000
                                        }
                                    }
                                }
                            }
                            JOINT LeftFinger1
                            {
                                OFFSET   8.364480   0.000000   3.252850
                                CHANNELS 3 Zrotation Xrotation Yrotation
                                JOINT LeftFinger11
                                {
                                    OFFSET   4.646930   0.000000   0.000000
                                    CHANNELS 3 Zrotation Xrotation Yrotation
                                    JOINT LeftFinger12
                                    {
                                        OFFSET   2.323470   0.000000   0.000000
                                        CHANNELS 3 Zrotation Xrotation Yrotation
                                        End Site
                                        {
                                            OFFSET   2.273050   0.000000   0.000000
                                        }
                                    }
                                }
                            }
                            JOINT LeftFinger2
                            {
                                OFFSET   8.364490   0.000016   1.078090
                                CHANNELS 3 Zrotation Xrotation Yrotation
                                JOINT LeftFinger21
                                {
                                    OFFSET   5.111610   0.000000   0.000000
                                    CHANNELS 3 Zrotation Xrotation Yrotation
                                    JOINT LeftFinger22
                                    {
                                        OFFSET   2.788150   0.000016   0.000000
                                        CHANNELS 3 Zrotation Xrotation Yrotation
                                        End Site
                                        {
                                            OFFSET   2.727660   0.000000   0.000000
                                        }
                                    }
                                }
                            }
                            JOINT LeftFinger3
                            {
                                OFFSET   7.899780   0.000015  -1.078090
                                CHANNELS 3 Zrotation Xrotation Yrotation
                                JOINT LeftFinger31
                                {
                                    OFFSET   4.646930   0.000000   0.000000
                                    CHANNELS 3 Zrotation Xrotation Yrotation
                                    JOINT LeftFinger32
                                    {
                                        OFFSET   2.323470   0.000000   0.000000
                                        CHANNELS 3 Zrotation Xrotation Yrotation
                                        End Site
                                        {
                                            OFFSET   2.273050   0.000000   0.000000
                                        }
                                    }
                                }
                            }
                            JOINT LeftFinger4
                            {
                                OFFSET   7.435090   0.000000  -3.252850
                                CHANNELS 3 Zrotation Xrotation Yrotation
                                JOINT LeftFinger41
                                {
                                    OFFSET   3.717550   0.000000   0.000000
                                    CHANNELS 3 Zrotation Xrotation Yrotation
                                    JOINT LeftFinger42
                                    {
                                        OFFSET   1.858770   0.000000   0.000000
                                        CHANNELS 3 Zrotation Xrotation Yrotation
                                        End Site
                                        {
                                            OFFSET   1.818440   0.000000   0.000000
                                        }
                                    }
                                }
                            }
                        }
                    }
                }
            }
            JOINT RightCollar
            {
                OFFSET  -3.911910  19.017000  -0.467062
                CHANNELS 3 Zrotation Xrotation Yrotation
                JOINT RightShoulder
                {
                    OFFSET -10.383700   0.000014   0.000000
                    CHANNELS 3 Zrotation Xrotation Yrotation
                    JOINT RightElbow
                    {
                        OFFSET -26.662100   0.001225   0.001091
                        CHANNELS 3 Zrotation Xrotation Yrotation
                        JOINT RightWrist
                        {
                            OFFSET -28.869000  -0.000020  -0.000085
                            CHANNELS 3 Zrotation Xrotation Yrotation
                            JOINT RightFinger0
                            {
                                OFFSET  -2.044650  -2.323490   3.252850
                                CHANNELS 3 Zrotation Xrotation Yrotation
                                JOINT RightFinger01
                                {
                                    OFFSET  -3.088130   0.000000   0.000000
                                    CHANNELS 3 Zrotation Xrotation Yrotation
                                    JOINT RightFinger02
                                    {
                                        OFFSET  -2.639460   0.000000   0.000000
                                        CHANNELS 3 Zrotation Xrotation Yrotation
                                        End Site
                                        {
                                            OFFSET  -2.582190   0.000000   0.000000
                                        }
                                    }
                                }
                            }
                            JOINT RightFinger1
                            {
                                OFFSET  -8.364480   0.000000   3.252850
                                CHANNELS 3 Zrotation Xrotation Yrotation
                                JOINT RightFinger11
                                {
                                    OFFSET  -4.646930   0.000000   0.000000
                                    CHANNELS 3 Zrotation Xrotation Yrotation
                                    JOINT RightFinger12
                                    {
                                        OFFSET  -2.323470   0.000000   0.000000
                                        CHANNELS 3 Zrotation Xrotation Yrotation
                                        End Site
                                        {
                                            OFFSET  -2.273050   0.000000   0.000000
                                        }
                                    }
                                }
                            }
                            JOINT RightFinger2
                            {
                                OFFSET  -8.364480   0.000000   1.078090
                                CHANNELS 3 Zrotation Xrotation Yrotation
                                JOINT RightFinger21
                                {
                                    OFFSET  -5.111620   0.000000   0.000000
                                    CHANNELS 3 Zrotation Xrotation Yrotation
                                    JOINT RightFinger22
                                    {
                                        OFFSET  -2.788160   0.000000   0.000000
                                        CHANNELS 3 Zrotation Xrotation Yrotation
                                        End Site
                                        {
                                            OFFSET  -2.727660   0.000000   0.000000
                                        }
                                    }
                                }
                            }
                            JOINT RightFinger3
                            {
                                OFFSET  -7.899780   0.000000  -1.078090
                                CHANNELS 3 Zrotation Xrotation Yrotation
                                JOINT RightFinger31
                                {
                                    OFFSET  -4.646930   0.000000   0.000000
                                    CHANNELS 3 Zrotation Xrotation Yrotation
                                    JOINT RightFinger32
                                    {
                                        OFFSET  -2.323470   0.000000   0.000000
                                        CHANNELS 3 Zrotation Xrotation Yrotation
                                        End Site
                                        {
                                            OFFSET  -2.273050   0.000000   0.000000
                                        }
                                    }
                                }
                            }
                            JOINT RightFinger4
                            {
                                OFFSET  -7.435090   0.000000  -3.252850
                                CHANNELS 3 Zrotation Xrotation Yrotation
                                JOINT RightFinger41
                                {
                                    OFFSET  -3.717550   0.000000   0.000000
                                    CHANNELS 3 Zrotation Xrotation Yrotation
                                    JOINT RightFinger42
                                    {
                                        OFFSET  -1.858760   0.000000   0.000000
                                        CHANNELS 3 Zrotation Xrotation Yrotation
                                        End Site
                                        {
                                            OFFSET  -1.818440   0.000000   0.000000
                                        }
                                    }
                                }
                            }
                        }
                    }
                }
            }
        }
    }
    JOINT LeftHip
    {
        OFFSET   9.783030   0.000000   0.000000
        CHANNELS 3 Zrotation Xrotation Yrotation
        JOINT LeftKnee
        {
            OFFSET   0.000063 -41.789100   0.000608
            CHANNELS 3 Zrotation Xrotation Yrotation
            JOINT LeftAnkle
            {
                OFFSET   0.000048 -41.133200  -0.000184
                CHANNELS 3 Zrotation Xrotation Yrotation
                JOINT LeftToe
                {
                    OFFSET   0.000000  -6.358960  14.674500
                    CHANNELS 3 Zrotation Xrotation Yrotation
                    End Site
                    {
                        OFFSET   0.000000   0.000000   3.913200
                    }
                }
            }
        }
    }
    JOINT RightHip
    {
        OFFSET  -9.783030   0.000000   0.000000
        CHANNELS 3 Zrotation Xrotation Yrotation
        JOINT RightKnee
        {
            OFFSET   0.000071 -41.789100   0.001239
            CHANNELS 3 Zrotation Xrotation Yrotation
            JOINT RightAnkle
            {
                OFFSET   0.000037 -41.133200  -0.000166
                CHANNELS 3 Zrotation Xrotation Yrotation
                JOINT RightToe
                {
                    OFFSET   0.000000  -6.358960  14.674500
                    CHANNELS 3 Zrotation Xrotation Yrotation
                    End Site
                    {
                        OFFSET   0.000000   0.000000   3.913200
                    }
                }
            }
        }
    }
}
MOTION
Frames: 4
Frame Time:   0.016667
  1.365670  89.578700  -0.132095  -3.677480 -10.816200  -4.098820   0.854619   6.845090   0.250177   1.697270  13.693200   0.400972   1.480860  -0.581854   0.009541   2.443180  -1.177960   6.055320  -6.162250  -1.870970   2.719010 -69.171000  29.983400  -4.243790  -2.992750 -11.353700 -16.650300  16.981400 -14.883000   6.551720  38.393600  32.530800 -61.640000 -32.906900   0.001774   0.003352 -11.457500   0.011773   0.000000 -35.365500   7.286820 -10.133400 -29.464600   0.002807   0.011666 -20.632300   0.007012   0.008979 -29.184500   0.214070  -0.385183 -43.777900   0.002721   0.010578 -29.156000   0.000351   0.004797 -28.699400   0.075320  -0.136346 -38.898200  -0.000715  -0.001265 -25.906200   0.003955  -0.000499 -34.630300   0.083489  -0.127902 -51.945600   0.013235   0.000577 -34.595700  -0.005652   0.003151  11.455500  -0.832656  10.782800  65.796400  28.871400  -2.483070  -5.122880  -2.454390  19.838800 -16.337900 -13.670900  -4.731680 -36.001900  30.031400  67.650400  31.145600   0.007047  -0.012527  10.572800   0.003901  -0.006948  36.421200   8.474910  11.295800  30.486200  -0.007657   0.004814  21.351600  -0.002628   0.004600  31.243300   2.122260   3.494220  46.951300   0.000083   0.003368  31.280100   0.004207   0.003548  28.862000   0.288481   0.523525  43.295100  -0.009863   0.005211  28.834500  -0.000190   0.004726  41.919800  -1.655880  -1.843330  62.919500  -0.000197   0.005942  41.904500   0.000902   0.012482   2.449340  13.474900   5.204930   0.545879   0.247283  11.608200  -1.704110  -3.562710   2.584060   0.000000   0.000000   0.000000   2.128990  12.287700   0.230267  -0.148914   1.784590 -12.576300   0.223911  -3.841960   0.316888  -0.000000   0.000000   0.000000
  1.362050  89.578700  -0.137708  -3.680020 -10.825600  -4.108770   0.854147   6.849140   0.248932   1.696480  13.701300   0.398456   1.480580  -0.568874   0.009557   2.441230  -1.151610   6.012140  -6.154990  -1.875330   2.718460 -69.169500  29.995100  -4.246680  -2.991830 -11.357700 -16.640600  16.979200 -14.893200   6.548120  38.383200  32.523500 -61.647800 -32.918600   0.001773   0.003356 -11.457400   0.011782   0.000000 -35.377200   7.286700 -10.124100 -29.473900   0.002795   0.011661 -20.632100   0.007009   0.008971 -29.193300   0.213860  -0.379799 -43.791100   0.002715   0.010571 -29.164800   0.000343   0.004787 -28.699400   0.075113  -0.132576 -38.915600  -0.000736  -0.001267 -25.917800   0.003949  -0.000522 -34.639300   0.083489  -0.124350 -51.959100   0.013238   0.000565 -34.604700  -0.005650   0.003143  11.472100  -0.865004  10.786000  65.835800  28.932000  -2.506180  -5.132240  -2.444640  19.842100 -16.335200 -13.670900  -4.735500 -35.942900  29.950200  67.677500  31.139600   0.007019  -0.012558  10.569800   0.003901  -0.006918  36.434400   8.451940  11.260600  30.494200  -0.007653   0.004813  21.351600  -0.002621   0.004605  31.245900   2.100990   3.458470  46.959100   0.000078   0.003375  31.280100   0.004226   0.003539  28.869100   0.264286   0.479540  43.305800  -0.009863   0.005205  28.841600  -0.000191   0.004713  41.940600  -1.662410  -1.849220  62.950900  -0.000205   0.005950  41.925400   0.000886   0.012497   2.454160  13.482100   5.209810   0.545219   0.249977  11.605600  -1.703800  -3.562680   2.588870   0.000000   0.000000   0.000000   2.134510  12.289200   0.229779  -0.149047   1.787420 -12.567900   0.224219  -3.841280   0.316780  -0.000000   0.000000  -0.000000
  1.356030  89.578600  -0.147579  -3.683720 -10.841300  -4.122500   0.853429   6.856620   0.246176   1.695380  13.716200   0.392863   1.480210  -0.545885   0.009588   2.438010  -1.104990   5.933310  -6.144430  -1.882180   2.715040 -69.167000  30.019100  -4.257500  -2.991870 -11.371000 -16.622800  16.973300 -14.903600   6.541930  38.366500  32.516200 -61.655700 -32.930400   0.001767   0.003360 -11.457300   0.011803  -0.000000 -35.388900   7.286570 -10.114800 -29.483300   0.002767   0.011645 -20.631900   0.007000   0.008954 -29.202100   0.213651  -0.374415 -43.804200   0.002700   0.010554 -29.173600   0.000321   0.004762 -28.699400   0.074906  -0.128806 -38.932900  -0.000787  -0.001273 -25.929300   0.003931  -0.000579 -34.648300   0.083488  -0.120798 -51.972600   0.013244   0.000532 -34.613700  -0.005644   0.003119  11.506600  -0.929298  10.796200  65.888100  29.026500  -2.553130  -5.151440  -2.434570  19.866100 -16.316200 -13.670600  -4.762280 -35.825500  29.787100  67.713000  31.097300   0.006947  -0.012631  10.548700   0.003903  -0.006854  36.453600   8.414590  11.205000  30.502300  -0.007647   0.004811  21.351600  -0.002599   0.004610  31.250000   2.067190   3.402000  46.967000   0.000074   0.003392  31.280100   0.004274   0.003520  28.879300   0.222601   0.403775  43.320300  -0.009869   0.005187  28.851300  -0.000191   0.004673  41.973900  -1.672880  -1.858680  63.001400  -0.000220   0.005974  41.959000   0.000844   0.012534   2.462110  13.495600   5.217870   0.543865   0.252675  11.600000  -1.703290  -3.562590   2.596030   0.000000   0.000000   0.000000   2.144070  12.293900   0.229293  -0.149182   1.790240 -12.559500   0.224510  -3.838430   0.316592  -0.000000   0.000000  -0.000000
  1.351130  89.578600  -0.156567  -3.687650 -10.852800  -4.126090   0.853081   6.863500   0.242352   1.695150  13.729900   0.385081   1.480060  -0.524802   0.009621   2.434300  -1.062350   5.858680  -6.139370  -1.886750   2.709260 -69.165600  30.047800  -4.281580  -2.990700 -11.398000 -16.599800  16.959700 -14.883900   6.535330  38.370400  32.526200 -61.658000 -32.930300   0.001748   0.003335 -11.457200   0.011833  -0.000000 -35.383900   7.286570 -10.118600 -29.479000   0.002728   0.011617 -20.631900   0.006983   0.008930 -29.201000   0.213703  -0.376656 -43.802600   0.002679   0.010528 -29.172500   0.000289   0.004721 -28.699400   0.075672  -0.133727 -38.927800  -0.000860  -0.001284 -25.925900   0.003905  -0.000665 -34.645400   0.086658  -0.125427 -51.968200   0.013252   0.000482 -34.610800  -0.005638   0.003082  11.551700  -1.003580  10.820700  65.923700  29.090600  -2.625040  -5.160650  -2.477500  19.928000 -16.250800 -13.700500  -4.822890 -35.748600  29.588900  67.724400  30.961100   0.006833  -0.012747  10.480600   0.003910  -0.006770  36.453700   8.389970  11.174300  30.499100  -0.007642   0.004809  21.349400  -0.002559   0.004610  31.248700   2.045940   3.367280  46.962800   0.000078   0.003418  31.277300   0.004345   0.003494  28.884500   0.188007   0.340934  43.325000  -0.009898   0.005158  28.854500  -0.000185   0.004596  41.999400  -1.680870  -1.865900  63.040000  -0.000241   0.006017  41.984700   0.000783   0.012587   2.468110  13.508200   5.225610   0.541718   0.245474  11.590300  -1.701640  -3.556950   2.599680  -0.000000   0.000000   0.000000   2.151610  12.303100   0.232244  -0.150100   1.785700 -12.559800   0.224309  -3.831530   0.316383   0.000000   0.000000  -0.000000
